# xmcd
#
# Track frame offsets:
#	150
#	59756
#	133348
#	200114
#	231678
#	266983
#	279054
#	296821
#
# Disc length: 4246 seconds
#
# Revision: 1
# Processed by: cddbd v1.5.2PL0 Copyright (c) Steve Scherf et al.
# Submitted via: audiograbber 1.83.01
#
DISCID=92109408
DTITLE=Various Artist - Digital DJ Series 5 Volume 10 CD1
DYEAR=1900
DGENRE=
TTITLE0=Various Artist - Nukleuz Records Label Mix (Mixed By Mark 'Hitman' Smith)
TTITLE1=Various Artist - The Pop Selection (Mixed By DJ S)
TTITLE2=Various Artist - Bangin' Beats (Mixed By Saint)
TTITLE3=Lisa Moorish - Mr Friday Night (12'')
TTITLE4=Sharada House Gang - Gypsy Boy, Gypsy Girl (12'')
TTITLE5=The La's  - There She Goes
TTITLE6=The Charlatans - The Only One I Know
TTITLE7=Pulp - Disco 2000
EXTD=
EXTT0=
EXTT1=
EXTT2=
EXTT3=
EXTT4=
EXTT5=
EXTT6=
EXTT7=
PLAYORDER=
